<?xml version="1.0" encoding="utf-8"?>
<!-- Generator: Adobe Illustrator 24.0.1, SVG Export Plug-In . SVG Version: 6.00 Build 0)  -->
<svg version="1.1" id="Layer_1" xmlns="http://www.w3.org/2000/svg" xmlns:xlink="http://www.w3.org/1999/xlink" x="0px" y="0px"
	 viewBox="0 0 510.2 510.2" style="enable-background:new 0 0 510.2 510.2;" xml:space="preserve">
<style type="text/css">
	.st0{fill:#8BC53E;}
</style>
<g>
	<path class="st0" d="M299.1,300.9v-83.5l116.3-6.5c15.6-0.9,27.7-13.7,27.7-29.3c0-2.2-1.8-4-4-4H276.7l6.4-19.3
		c5.3-16,6.4-33.2,3.1-49.7c-2.2-11.1-10.3-20.3-21.1-23.8c-6.5-2.2-13.6-2.2-20,0c-10.8,3.6-18.8,12.7-21.1,23.8
		c-3.3,16.5-2.2,33.7,3.1,49.7l6.4,19.3H71.1c-2.2,0-4,1.8-4,4c0,15.6,12.2,28.5,27.7,29.3l116.3,6.5v83.5l-63.8,183.4
		c-0.4,1.2-0.2,2.6,0.5,3.6c0.8,1.1,2,1.7,3.3,1.7h10.5c14.7,0,27.8-8.8,33.3-22.4l60.2-147.1l60.2,147.1
		c5.6,13.6,18.6,22.4,33.3,22.4h10.5c1.3,0,2.5-0.6,3.3-1.7c0.8-1.1,0.9-2.4,0.5-3.6L299.1,300.9z M348.6,481.6
		c-11.4,0-21.6-6.8-25.9-17.4l-63.9-156.1c-0.6-1.5-2.1-2.5-3.7-2.5s-3.1,1-3.7,2.5l-63.9,156.1c-4.3,10.6-14.5,17.4-25.9,17.4h-4.9
		l62.2-178.7c0.1-0.4,0.2-0.9,0.2-1.3v-88c0-2.1-1.7-3.9-3.8-4l-120-6.7c-10-0.6-18-7.9-19.8-17.3h163.6c1.3,0,2.5-0.6,3.2-1.7
		c0.8-1,1-2.4,0.5-3.6l-8.2-24.5c-4.9-14.7-5.9-30.5-2.8-45.6c1.7-8.3,7.7-15.1,15.7-17.8c4.8-1.6,10.2-1.6,15,0
		c8,2.7,14.1,9.5,15.7,17.8c3,15.2,2.1,31-2.8,45.6l-8.2,24.5c-0.4,1.2-0.2,2.6,0.5,3.6c0.8,1,2,1.7,3.2,1.7h163.6
		c-1.8,9.5-9.9,16.8-19.8,17.3l-120,6.7c-2.1,0.1-3.8,1.9-3.8,4v88c0,0.4,0.1,0.9,0.2,1.3l62.2,178.7H348.6z"/>
	<path class="st0" d="M45.9,145.4l72,24c0.4,0.1,0.8,0.2,1.3,0.2c0.7,0,1.9-0.4,1.9-0.4l71.4-23.8c1.6-0.5,2.7-2.1,2.7-3.8v-104
		c0-1.2-0.6-2.4-1.5-3.1c-0.9-0.8-2.2-1.1-3.4-0.8l-46.9,10.4c-10.8,2.4-19.4,9.3-24.2,18.5c-4.8-9.2-13.4-16.2-24.2-18.5L48,33.7
		c-1.2-0.3-2.4,0-3.4,0.8c-0.9,0.8-1.5,1.9-1.5,3.1v104C43.1,143.3,44.2,144.8,45.9,145.4z M123.1,79.2c0-13.2,9-24.5,21.9-27.3
		l42.1-9.3v96.1l-64,21.3V79.2z M51.1,42.6l42.1,9.3c12.9,2.9,21.9,14.1,21.9,27.3V160l-64-21.3V42.6z"/>
	<polygon class="st0" points="61.9,124 104.4,138.2 104.4,129.8 61.9,115.6 	"/>
	<polygon class="st0" points="61.9,100 104.4,114.2 104.4,105.8 61.9,91.6 	"/>
	<polygon class="st0" points="61.9,76 104.4,90.2 104.4,81.8 61.9,67.6 	"/>
	<polygon class="st0" points="133.9,129.8 133.9,138.2 176.4,124 176.4,115.6 	"/>
	<polygon class="st0" points="133.9,105.8 133.9,114.2 176.4,100 176.4,91.6 	"/>
	<polygon class="st0" points="133.9,81.8 133.9,90.2 176.4,76 176.4,67.6 	"/>
	<path class="st0" d="M375.1,169.6h32c2.2,0,4-1.8,4-4v-22.3l5.9-5.9c11.7-11.7,18.1-27.3,18.1-43.8c0-24.3-19.7-44-44-44
		s-44,19.7-44,44c0,16.5,6.4,32.1,18.1,43.8l5.9,5.9v22.3C371.1,167.8,372.9,169.6,375.1,169.6z M403.1,161.6h-24v-16h24V161.6z
		 M370.9,131.7c-10.2-10.2-15.8-23.7-15.8-38.1c0-19.9,16.1-36,36-36s36,16.1,36,36c0,14.4-5.6,28-15.8,38.1l-5.9,5.9h-28.7
		L370.9,131.7z"/>
	<rect x="387.1" y="21.6" class="st0" width="8" height="24"/>
	<rect x="439.1" y="81.6" class="st0" width="24" height="8"/>
	<rect x="446.4" y="102.4" transform="matrix(0.5 -0.866 0.866 0.5 126.266 447.1609)" class="st0" width="8" height="23.7"/>
	<rect x="408.5" y="31.8" transform="matrix(0.5 -0.866 0.866 0.5 178.9553 381.5007)" class="st0" width="22.7" height="8"/>
	<rect x="429.9" y="52.1" transform="matrix(0.866 -0.5 0.5 0.866 31.1857 228.6066)" class="st0" width="24.6" height="8"/>
	<rect x="319.1" y="81.6" class="st0" width="24" height="8"/>
	<rect x="320" y="110.2" transform="matrix(0.866 -0.5 0.5 0.866 -12.6539 181.2323)" class="st0" width="23.7" height="8"/>
	<rect x="358.4" y="24.4" transform="matrix(0.866 -0.5 0.5 0.866 30.6637 185.9697)" class="st0" width="8" height="22.7"/>
	<rect x="336.1" y="43.8" transform="matrix(0.5 -0.866 0.866 0.5 121.4438 322.5754)" class="st0" width="8" height="24.6"/>
	<path class="st0" d="M388.9,121.2c0.7,0.4,1.4,0.7,2.2,0.7c0.8,0,1.6-0.2,2.2-0.7l9.9-6.7c6.9-4.6,12.2-11.4,14.9-19.1
		c2.1-5.9,0.6-12.6-3.8-17.1c-6.4-6.4-16.7-6.4-23.1,0l-0.1,0.1l-0.1-0.1c-3.1-3.1-7.2-4.8-11.6-4.8c-4.4,0-8.5,1.7-11.6,4.8
		c-4.4,4.4-5.9,11.1-3.8,17.1c2.8,7.8,8.1,14.5,14.9,19.1L388.9,121.2z M371.6,92.8c-1.1-3-0.3-6.4,2-8.7c1.6-1.6,3.7-2.4,5.9-2.4
		c2.2,0,4.3,0.9,5.9,2.5l2.9,2.9c1.6,1.5,4.1,1.5,5.6,0l2.9-2.9c3.3-3.3,8.5-3.3,11.8,0c2.3,2.3,3,5.7,2,8.7
		c-2.2,6.1-6.4,11.5-11.8,15.2l-7.7,5.2l-7.7-5.1C378,104.3,373.8,98.9,371.6,92.8z"/>
	<path class="st0" d="M35,313.2c-5.2-19.3-7.9-39.4-7.9-59.6c0-29.9,5.7-59,17-86.5l-7.4-3c-11.7,28.4-17.6,58.5-17.6,89.5
		c0,20.9,2.7,41.7,8.1,61.7L35,313.2L35,313.2z"/>
	<path class="st0" d="M36.7,343.1c5.5,13.3,12.2,26.3,20.1,38.4l6.7-4.3c-7.6-11.7-14.1-24.2-19.4-37.1L36.7,343.1z"/>
	<path class="st0" d="M85.8,406.2l-5.9,5.4c8.1,9,17,17.4,26.4,25.1l5.1-6.2C102.2,423.1,93.6,414.9,85.8,406.2z"/>
	<path class="st0" d="M132.9,446.1l-4.3,6.8c5.7,3.6,11.6,7,17.6,10.2l3.7-7.1C144.1,452.9,138.4,449.6,132.9,446.1z"/>
	<path class="st0" d="M255.1,481.6c-18,0-36-2.1-53.3-6.3l-1.9,7.8c18,4.3,36.6,6.5,55.2,6.5c19.4,0,38.6-2.4,57.2-7l-1.9-7.8
		C292.4,479.3,273.8,481.6,255.1,481.6z"/>
	<path class="st0" d="M482,318.7c6-21.1,9.1-43,9.1-65.1c0-39.9-10.1-79.3-29.3-113.9l-7,3.9c18.5,33.5,28.3,71.6,28.3,110.1
		c0,21.4-3,42.5-8.8,62.9L482,318.7z"/>
	<path class="st0" d="M255.1,25.6c27,0,53.5,4.7,78.6,13.9l2.8-7.5c-26-9.6-53.4-14.4-81.4-14.4c-16.4,0-32.9,1.7-48.8,5.1l1.6,7.8
		C223.4,27.2,239.2,25.6,255.1,25.6z"/>
	<path class="st0" d="M446.8,377.2l6.7,4.3c7.8-12.1,14.6-25.1,20.1-38.4l-7.4-3C460.9,352.9,454.3,365.4,446.8,377.2z"/>
	<path class="st0" d="M399,430.5l5.1,6.2c9.4-7.6,18.3-16.1,26.4-25.1l-5.9-5.4C416.6,414.9,408.1,423.1,399,430.5z"/>
	<path class="st0" d="M360.3,455.9l3.7,7.1c6-3.1,11.9-6.5,17.6-10.2l-4.3-6.8C371.8,449.6,366.1,452.9,360.3,455.9z"/>
</g>
</svg>
