<?xml version="1.0" encoding="utf-8"?>
<!-- Generator: Adobe Illustrator 24.0.1, SVG Export Plug-In . SVG Version: 6.00 Build 0)  -->
<svg version="1.1" id="Layer_1" xmlns="http://www.w3.org/2000/svg" xmlns:xlink="http://www.w3.org/1999/xlink" x="0px" y="0px"
	 viewBox="0 0 64 65.6" style="enable-background:new 0 0 64 65.6;" xml:space="preserve">
<style type="text/css">
	.st0{fill:#8BC53E;}
</style>
<g>
	<g>
		<path class="st0" d="M19.6,32.8c-0.2-5.3-8.1-5.3-8.3,0C11.6,38.1,19.5,38.1,19.6,32.8z M13.4,32.8c0-2.6,4.2-2.6,4.2,0
			C17.6,35.4,13.4,35.4,13.4,32.8z"/>
		<path class="st0" d="M61,51.8h-2c0-12,0-31,0-43c0-0.4-0.3-0.8-0.7-1l-17.8-5c-0.6-0.2-1.3,0.3-1.3,1v17H33v-7c0-0.6-0.4-1-1-1H14
			c-0.6,0-1,0.4-1,1v12.3C7,27.2,2.5,32,2.3,32.2c-0.4,0.4-0.4,1,0,1.4c0.2,0.2,4.7,5,10.7,6.1V52h-2c-1.3,0-1.3,2,0,2
			c1.9,0,13,0,15.2,0c2.3,11.9,19.3,11.9,21.6,0c2.2,0,11.1,0,13.2,0C62.3,53.8,62.3,51.8,61,51.8z M40.2,22.8H43v19.8
			c-2.9-1.9-6.7-2.3-9.9-1V22.8H40.2z M14.1,27.9c5-0.9,10.8,3.2,12.4,4.9c-1.7,1.7-7.5,5.8-12.4,4.9c-4.4-0.5-8.2-3.5-9.7-4.9
			C6,31.5,9.7,28.4,14.1,27.9z M15,51.8v-12c7,0.4,13.6-6.1,13.7-6.3c0.4-0.4,0.4-1,0-1.4c-0.1-0.2-6.7-6.8-13.7-6.3v-11h16
			c0,4.6,0,22.8,0,27.8c-3.1,2-5.1,5.6-5,9.2H15z M37,60.8c-5.4,0.1-9.7-4.9-8.9-10.2c1.8-11,17.6-10,17.9,1.2
			C46,56.8,42,60.9,37,60.8z M48,51.8c0-2.8-1.1-5.6-3-7.6V21.8c0-0.6-0.4-1-1-1h-2.8V5.1L57,9.6v18.2h-8c-0.6,0-1,0.4-1,1
			s0.4,1,1,1h8v4h-8c-0.6,0-1,0.4-1,1s0.4,1,1,1h8v16C57,51.8,48,51.8,48,51.8z"/>
		<path class="st0" d="M35.6,48.5h5.1c1.3,0,1.3-2,0-2h-2.6v-1.2c0-0.6-0.4-1-1-1s-1,0.4-1,1v1.2c-4.5-0.3-5,6.1-0.5,6.4h2.9
			c1,0,1.6,1.3,0.8,2c-0.2,0.2-0.5,0.3-0.8,0.3h-5.1c-1.3,0-1.3,2,0,2H36v1.2c0,0.6,0.4,1,1,1s1-0.4,1-1v-1.2c4.5,0.3,5-6.1,0.5-6.4
			h-2.9C34,50.8,34,48.5,35.6,48.5z"/>
	</g>
</g>
</svg>
