<?xml version="1.0" encoding="utf-8"?>
<!-- Generator: Adobe Illustrator 24.0.1, SVG Export Plug-In . SVG Version: 6.00 Build 0)  -->
<svg version="1.1" id="Layer_1" xmlns="http://www.w3.org/2000/svg" xmlns:xlink="http://www.w3.org/1999/xlink" x="0px" y="0px"
	 viewBox="0 0 48 48.6" style="enable-background:new 0 0 48 48.6;" xml:space="preserve">
<style type="text/css">
	.st0{fill:#8BC53E;}
</style>
<g>
	<path class="st0" d="M43.5,4H40V3.5C40,3.2,39.8,3,39.5,3h-5C34.2,3,34,3.2,34,3.5V16h-1.5c-0.3,0-0.5,0.2-0.5,0.5v2
		c0,0.3,0.2,0.5,0.5,0.5h4c0.3,0,0.5-0.2,0.5-0.5v-2c0-0.3-0.2-0.5-0.5-0.5H35v-6h4v0.5c0,0.3,0.2,0.5,0.5,0.5h4
		c0.3,0,0.5-0.2,0.5-0.5v-6C44,4.2,43.8,4,43.5,4z M36,17v1h-3v-1H36z M39,4.5V9h-4V4h4V4.5z M43,10h-3V9.5V5h3V10z"/>
	<path class="st0" d="M8,38h12.1c0.2,0.6,0.8,1,1.4,1s1.2-0.4,1.4-1h12.6c1.4,0,2.5,1.1,2.5,2.5c0,0.7-0.3,1.3-0.7,1.8
		S36.2,43,35.5,43h-8.6c-0.2-0.6-0.8-1-1.4-1s-1.2,0.4-1.4,1h-4.6c-0.3,0-0.5,0.2-0.5,0.5s0.2,0.5,0.5,0.5h4.6c0.2,0.6,0.8,1,1.4,1
		s1.2-0.4,1.4-1h8.6c0.9,0,1.8-0.4,2.5-1c0.7-0.7,1-1.5,1-2.5c0-1.9-1.6-3.5-3.5-3.5H22.9c-0.2-0.6-0.8-1-1.4-1s-1.2,0.4-1.4,1H8
		c-0.8,0-1.6-0.3-2.1-0.9C5.3,35.6,5,34.8,5,34c0-1.7,1.3-3,3-3h4.1c0.2,0.6,0.8,1,1.4,1s1.2-0.4,1.4-1h17.2c0.2,0.6,0.8,1,1.4,1
		s1.2-0.4,1.4-1h3.6c0.9,0,1.8-0.4,2.5-1c0.7-0.7,1-1.5,1-2.5c0-1.9-1.6-3.5-3.5-3.5H26.9c-0.2-0.6-0.8-1-1.4-1s-1.2,0.4-1.4,1h-2.6
		c-0.8,0-1.5-0.3-2.1-0.9c-0.6-0.6-0.9-1.3-0.9-2.1c0-1.6,1.4-3,3-3h3.6c0.2,0.6,0.8,1,1.4,1s1.2-0.4,1.4-1h1.6
		c0.3,0,0.5-0.2,0.5-0.5S29.8,17,29.5,17h-1.6c-0.2-0.6-0.8-1-1.4-1s-1.2,0.4-1.4,1h-3.6c-2.2,0-4,1.8-4,4c0,1.1,0.4,2.1,1.2,2.8
		c0.8,0.8,1.8,1.2,2.8,1.2h2.6c0.2,0.6,0.8,1,1.4,1s1.2-0.4,1.4-1h11.6c1.4,0,2.5,1.1,2.5,2.5c0,0.7-0.3,1.3-0.7,1.8
		S39.2,30,38.5,30h-3.6c-0.2-0.6-0.8-1-1.4-1s-1.2,0.4-1.4,1H14.9c-0.2-0.6-0.8-1-1.4-1s-1.2,0.4-1.4,1H8c-2.2,0-4,1.8-4,4
		c0,1.1,0.4,2.1,1.2,2.8C5.9,37.6,6.9,38,8,38z M25.5,44c-0.3,0-0.5-0.2-0.5-0.5s0.2-0.5,0.5-0.5s0.5,0.2,0.5,0.5S25.8,44,25.5,44z
		 M21.5,37c0.3,0,0.5,0.2,0.5,0.5S21.8,38,21.5,38S21,37.8,21,37.5S21.2,37,21.5,37z M26.5,17c0.3,0,0.5,0.2,0.5,0.5
		S26.8,18,26.5,18S26,17.8,26,17.5S26.2,17,26.5,17z M25.5,25c-0.3,0-0.5-0.2-0.5-0.5s0.2-0.5,0.5-0.5s0.5,0.2,0.5,0.5
		S25.8,25,25.5,25z M33.5,30c0.3,0,0.5,0.2,0.5,0.5S33.8,31,33.5,31S33,30.8,33,30.5S33.2,30,33.5,30z M13.5,30
		c0.3,0,0.5,0.2,0.5,0.5S13.8,31,13.5,31S13,30.8,13,30.5S13.2,30,13.5,30z"/>
</g>
</svg>
